<svg xmlns="http://www.w3.org/2000/svg" xmlns:xlink="http://www.w3.org/1999/xlink" viewBox="0 0 1500 1500"><defs><style>.cls-1{isolation:isolate;}.cls-2{fill:#e8a126;}.cls-18,.cls-19,.cls-3,.cls-4{opacity:0.5;mix-blend-mode:multiply;}.cls-3{fill:url(#linear-gradient);}.cls-4{fill:url(#linear-gradient-2);}.cls-5{fill:url(#linear-gradient-3);}.cls-6{fill:url(#linear-gradient-4);}.cls-7{fill:url(#linear-gradient-5);}.cls-8{fill:url(#linear-gradient-6);}.cls-9{fill:url(#linear-gradient-7);}.cls-10{fill:url(#linear-gradient-8);}.cls-11{fill:url(#linear-gradient-9);}.cls-12{fill:url(#linear-gradient-10);}.cls-13{fill:url(#linear-gradient-11);}.cls-14{fill:url(#linear-gradient-12);}.cls-15{fill:url(#linear-gradient-13);}.cls-16{fill:url(#linear-gradient-14);}.cls-17,.cls-20{mix-blend-mode:screen;}.cls-17{fill:url(#linear-gradient-15);}.cls-18{fill:url(#linear-gradient-16);}.cls-19{fill:url(#linear-gradient-17);}.cls-20{fill:url(#linear-gradient-18);}</style><linearGradient id="linear-gradient" x1="778.51" y1="578.25" x2="871.25" y2="704.72" gradientUnits="userSpaceOnUse"><stop offset="0" stop-color="#fff"/><stop offset="1"/></linearGradient><linearGradient id="linear-gradient-2" x1="680.82" y1="640.18" x2="773.57" y2="766.65" xlink:href="#linear-gradient"/><linearGradient id="linear-gradient-3" x1="1241.35" y1="413.26" x2="1153.8" y2="821.85" gradientUnits="userSpaceOnUse"><stop offset="0" stop-color="#e88431"/><stop offset="0.25" stop-color="#e89929"/><stop offset="0.41" stop-color="#e8a126"/><stop offset="0.66" stop-color="#e8982a"/><stop offset="1" stop-color="#e88431"/></linearGradient><linearGradient id="linear-gradient-4" x1="424.78" y1="628.58" x2="1305.85" y2="628.58" gradientUnits="userSpaceOnUse"><stop offset="0" stop-color="#48a6df"/><stop offset="0.57" stop-color="#3785cd"/><stop offset="1" stop-color="#296abe"/></linearGradient><linearGradient id="linear-gradient-5" x1="384.74" y1="402.88" x2="384.74" y2="894.51" gradientUnits="userSpaceOnUse"><stop offset="0" stop-color="#47a5de"/><stop offset="1" stop-color="#7f01ff"/></linearGradient><linearGradient id="linear-gradient-6" x1="237.68" y1="387.9" x2="237.68" y2="684.93" xlink:href="#linear-gradient-5"/><linearGradient id="linear-gradient-7" x1="332.05" y1="377.76" x2="332.05" y2="869.4" xlink:href="#linear-gradient-5"/><linearGradient id="linear-gradient-8" x1="237.68" y1="315.36" x2="237.68" y2="807" xlink:href="#linear-gradient-5"/><linearGradient id="linear-gradient-9" x1="372.41" y1="293.43" x2="372.41" y2="1183.26" xlink:href="#linear-gradient-5"/><linearGradient id="linear-gradient-10" x1="469.32" y1="307.09" x2="469.32" y2="798.72" gradientUnits="userSpaceOnUse"><stop offset="0" stop-color="#e8a126"/><stop offset="1" stop-color="#e87c25"/></linearGradient><linearGradient id="linear-gradient-11" x1="301.16" y1="402.88" x2="301.16" y2="894.51" xlink:href="#linear-gradient-10"/><linearGradient id="linear-gradient-12" x1="377.94" y1="402.88" x2="377.94" y2="894.51" xlink:href="#linear-gradient-10"/><linearGradient id="linear-gradient-13" x1="252.93" y1="385.9" x2="252.93" y2="846.3" xlink:href="#linear-gradient-10"/><linearGradient id="linear-gradient-14" x1="212.26" y1="363.9" x2="212.26" y2="855.53" xlink:href="#linear-gradient-10"/><linearGradient id="linear-gradient-15" x1="1058.19" y1="1009.85" x2="995.93" y2="783.51" xlink:href="#linear-gradient"/><linearGradient id="linear-gradient-16" x1="1304.95" y1="614.63" x2="1094.82" y2="776.12" gradientUnits="userSpaceOnUse"><stop offset="0" stop-color="#fff"/><stop offset="1" stop-color="#e8a126"/></linearGradient><linearGradient id="linear-gradient-17" x1="1303.57" y1="441.38" x2="1170.29" y2="403.44" xlink:href="#linear-gradient-16"/><linearGradient id="linear-gradient-18" x1="1050.73" y1="169.5" x2="1016.69" y2="507.07" xlink:href="#linear-gradient"/></defs><g class="cls-1"><g id="Layer_1" data-name="Layer 1"><path class="cls-2" d="M776,768.41c-.75,1-1.56,1.91-2.31,2.87-131,160.84-278.86,150.44-360.94,114.15V812.14C523.7,842.3,590,800.33,695.9,684.67c1.66-1.81,3.32-3.62,4.93-5.48C724.35,709.5,749,740.11,776,768.41Z"/><path class="cls-2" d="M1289.87,450.24c-34.64-38.45-81.78-58.15-139.23-51.72a217.92,217.92,0,0,0-25.39,4.38C1032,424.56,948.78,541,853.53,668c-26.79-26.74-51.92-57.2-77-88.87C864.34,447.78,944,312.08,1072.68,307.55,1190.36,303.4,1259.66,373.29,1289.87,450.24Z"/><path class="cls-3" d="M860.21,659c-25.72-26-49.83-55.52-72.08-83.61-1.86-2.35-3.72-4.75-5.57-7.1q-8,12.11-16.12,24.25c25.08,31.66,50.22,62.12,77,88.86Q851.9,670.11,860.21,659Z"/><path class="cls-4" d="M787.73,756.05c-27-28.3-51.67-58.91-75.19-89.21-1.61,1.86-3.27,3.66-4.93,5.47-4.77,5.21-9.44,10.22-14.06,15.13,21.24,27.28,46.4,58.57,74.16,87.68.68.71,1.35,1.36,2,2.06,5.25-5.85,10.49-11.87,15.69-18.26C786.17,758,787,757,787.73,756.05Z"/><path class="cls-5" d="M1305.85,574.75c-14.68,97.51-92,189.74-239.31,189.69,177.89-90.93,149.69-285,84.1-365.92,57.45-6.43,104.59,13.27,139.23,51.72C1306.6,492.87,1311.38,538,1305.85,574.75Z"/><path class="cls-6" d="M1305.85,574.75C1288.36,707,1173.25,936,970.24,889.45c-78.81-18.1-140.94-65.09-194.22-121-27-28.3-51.67-58.91-75.19-89.22C610,562,537.77,449.64,424.78,493.67V369.42c109-19.72,172.71-9.1,274,111.94,26.89,32.17,52.27,65.64,77.71,97.81,25.08,31.67,50.21,62.13,77,88.87,52.17,52.12,110.63,90,186.73,95.45,9,.65,17.79,1,26.28,1C1213.82,764.49,1291.17,672.26,1305.85,574.75Z"/><rect class="cls-7" x="344.69" y="289.33" width="80.09" height="80.09"/><rect class="cls-8" x="213.49" y="337.37" width="48.39" height="48.39"/><rect class="cls-9" x="305.62" y="414.09" width="52.85" height="52.85"/><rect class="cls-10" x="211.26" y="440.52" width="52.85" height="52.85"/><rect class="cls-11" x="324.59" y="519.95" width="95.65" height="95.65"/><rect class="cls-12" x="436.08" y="645.95" width="66.49" height="66.49"/><rect class="cls-13" x="277.73" y="615.6" width="46.86" height="46.86"/><rect class="cls-14" x="344.69" y="741.74" width="66.49" height="66.49"/><rect class="cls-15" x="221.79" y="703.24" width="62.26" height="62.26"/><rect class="cls-16" x="191.96" y="562.36" width="40.6" height="40.6"/><path class="cls-17" d="M1244.59,726.13c-63.47,72.43-184.88,131.32-311.33,75.29C770.8,729.43,681.84,603,681.84,603s6.64,26.68,22.62,64.46c1.45,1.88,2.85,3.73,4.31,5.61,21.23,27.35,46.68,59.25,74.53,88.45,62.14,65.25,122.26,102.8,189.19,118.17a225.93,225.93,0,0,0,50.38,5.89C1122.2,885.53,1197.9,812,1244.59,726.13Z"/><path class="cls-18" d="M1105.62,740.55a292.64,292.64,0,0,1-39.08,23.89c147.28,0,224.63-92.18,239.31-189.69C1305.85,574.75,1252.83,722.66,1105.62,740.55Z"/><path class="cls-19" d="M1150.64,398.52a181.69,181.69,0,0,1,11.33,15.7c78.76-5.3,127.9,36,127.9,36C1255.23,411.79,1208.09,392.09,1150.64,398.52Z"/><path class="cls-20" d="M1057.93,374c94.29-33.95,154.88-7.82,190.39,22.74-30.09-39.34-81.42-79.34-165.75-79.34q-4.72,0-9.54.17c-113.87,4-188.95,117.43-268.44,237.5q-7.8,11.76-15.64,23.57c6.75,8.47,13.72,17,20.79,25.58C883.8,507.77,978.64,402.57,1057.93,374Z"/><path class="cls-2" d="M285.25,1024.5v184.86h-58V1024.5Z"/><path class="cls-2" d="M533.55,1024.5v184.86h-57.7v-92.17l-28.46,92.17H397.78l-28.46-92.17v92.17h-58V1024.5h71l40.73,111,39.68-111Z"/><path class="cls-2" d="M702.74,1119.67q-8.1,14.24-23.89,22.59t-38.25,8.35h-23v58.75h-58V1024.5H640.6q33.95,0,52.09,17.24T710.83,1088A63.06,63.06,0,0,1,702.74,1119.67ZM652.09,1088q0-17-18-17H617.62v33.94h16.45Q652.09,1104.92,652.09,1088Z"/><path class="cls-2" d="M847.65,1181.42H786l-9.14,27.94H716.05l67.63-184.86h66.84l67.37,184.86h-61.1Zm-14.1-43.6-16.71-51.44-16.71,51.44Z"/><path class="cls-2" d="M936.81,1067.85a80.15,80.15,0,0,1,31.73-33.29q20.61-11.88,48.56-11.89,24,0,42.95,9a79.38,79.38,0,0,1,30.81,25.46q11.88,16.45,15.79,38.38h-61.08a33.27,33.27,0,0,0-11.89-14.23,31.27,31.27,0,0,0-17.62-5.09q-14.64,0-23.11,11t-8.48,29.5q0,18.54,8.48,29.51t23.11,11a31.27,31.27,0,0,0,17.62-5.09,33.15,33.15,0,0,0,11.89-14.23h61.08q-3.9,21.93-15.79,38.38a79.38,79.38,0,0,1-30.81,25.46q-18.93,9-42.95,9-27.93,0-48.56-11.88a80.21,80.21,0,0,1-31.73-33.29q-11.1-21.4-11.09-48.83T936.81,1067.85Z"/><path class="cls-2" d="M1272.71,1024.5v46h-49.08v138.9h-58v-138.9H1117.1v-46Z"/></g></g></svg>