<svg xmlns="http://www.w3.org/2000/svg" xmlns:xlink="http://www.w3.org/1999/xlink" viewBox="0 0 500 500"><defs><style>.cls-1{isolation:isolate;}.cls-2{fill:#e8a126;}.cls-18,.cls-19,.cls-3,.cls-4{opacity:0.5;mix-blend-mode:multiply;}.cls-3{fill:url(#linear-gradient);}.cls-4{fill:url(#linear-gradient-2);}.cls-5{fill:url(#linear-gradient-3);}.cls-6{fill:url(#linear-gradient-4);}.cls-7{fill:url(#linear-gradient-5);}.cls-8{fill:url(#linear-gradient-6);}.cls-9{fill:url(#linear-gradient-7);}.cls-10{fill:url(#linear-gradient-8);}.cls-11{fill:url(#linear-gradient-9);}.cls-12{fill:url(#linear-gradient-10);}.cls-13{fill:url(#linear-gradient-11);}.cls-14{fill:url(#linear-gradient-12);}.cls-15{fill:url(#linear-gradient-13);}.cls-16{fill:url(#linear-gradient-14);}.cls-17,.cls-20{mix-blend-mode:screen;}.cls-17{fill:url(#linear-gradient-15);}.cls-18{fill:url(#linear-gradient-16);}.cls-19{fill:url(#linear-gradient-17);}.cls-20{fill:url(#linear-gradient-18);}</style><linearGradient id="linear-gradient" x1="259.07" y1="195.38" x2="288.56" y2="235.6" gradientUnits="userSpaceOnUse"><stop offset="0" stop-color="#fff"/><stop offset="1"/></linearGradient><linearGradient id="linear-gradient-2" x1="228" y1="215.07" x2="257.49" y2="255.29" xlink:href="#linear-gradient"/><linearGradient id="linear-gradient-3" x1="406.26" y1="142.91" x2="378.42" y2="272.85" gradientUnits="userSpaceOnUse"><stop offset="0" stop-color="#e88431"/><stop offset="0.25" stop-color="#e89929"/><stop offset="0.41" stop-color="#e8a126"/><stop offset="0.66" stop-color="#e8982a"/><stop offset="1" stop-color="#e88431"/></linearGradient><linearGradient id="linear-gradient-4" x1="146.57" y1="211.38" x2="426.78" y2="211.38" gradientUnits="userSpaceOnUse"><stop offset="0" stop-color="#48a6df"/><stop offset="0.57" stop-color="#3785cd"/><stop offset="1" stop-color="#296abe"/></linearGradient><linearGradient id="linear-gradient-5" x1="133.84" y1="139.6" x2="133.84" y2="295.96" gradientUnits="userSpaceOnUse"><stop offset="0" stop-color="#47a5de"/><stop offset="1" stop-color="#7f01ff"/></linearGradient><linearGradient id="linear-gradient-6" x1="87.07" y1="134.84" x2="87.07" y2="229.31" xlink:href="#linear-gradient-5"/><linearGradient id="linear-gradient-7" x1="117.08" y1="131.62" x2="117.08" y2="287.97" xlink:href="#linear-gradient-5"/><linearGradient id="linear-gradient-8" x1="87.07" y1="111.77" x2="87.07" y2="268.13" xlink:href="#linear-gradient-5"/><linearGradient id="linear-gradient-9" x1="129.92" y1="104.8" x2="129.92" y2="387.79" xlink:href="#linear-gradient-5"/><linearGradient id="linear-gradient-10" x1="160.74" y1="109.14" x2="160.74" y2="265.5" gradientUnits="userSpaceOnUse"><stop offset="0" stop-color="#e8a126"/><stop offset="1" stop-color="#e87c25"/></linearGradient><linearGradient id="linear-gradient-11" x1="107.25" y1="139.6" x2="107.25" y2="295.96" xlink:href="#linear-gradient-10"/><linearGradient id="linear-gradient-12" x1="131.67" y1="139.6" x2="131.67" y2="295.96" xlink:href="#linear-gradient-10"/><linearGradient id="linear-gradient-13" x1="91.92" y1="134.21" x2="91.92" y2="280.63" xlink:href="#linear-gradient-10"/><linearGradient id="linear-gradient-14" x1="78.98" y1="127.21" x2="78.98" y2="283.56" xlink:href="#linear-gradient-10"/><linearGradient id="linear-gradient-15" x1="348.01" y1="332.64" x2="328.21" y2="260.66" xlink:href="#linear-gradient"/><linearGradient id="linear-gradient-16" x1="426.49" y1="206.95" x2="359.66" y2="258.31" gradientUnits="userSpaceOnUse"><stop offset="0" stop-color="#fff"/><stop offset="1" stop-color="#e8a126"/></linearGradient><linearGradient id="linear-gradient-17" x1="426.05" y1="151.85" x2="383.67" y2="139.78" xlink:href="#linear-gradient-16"/><linearGradient id="linear-gradient-18" x1="345.64" y1="65.38" x2="334.81" y2="172.74" xlink:href="#linear-gradient"/></defs><g class="cls-1"><g id="Layer_1" data-name="Layer 1"><path class="cls-2" d="M258.28,255.86c-.24.3-.5.6-.74.91-41.66,51.15-88.69,47.84-114.79,36.3V269.76C178,279.35,199.1,266,232.8,229.22c.52-.57,1-1.15,1.56-1.74A364.32,364.32,0,0,0,258.28,255.86Z"/><path class="cls-2" d="M421.69,154.67c-11-12.23-26-18.5-44.28-16.45a69.27,69.27,0,0,0-8.07,1.39c-29.67,6.89-56.12,43.91-86.41,84.32-8.53-8.5-16.52-18.19-24.49-28.26,27.92-41.78,53.25-84.94,94.18-86.38C390.05,108,412.09,130.2,421.69,154.67Z"/><path class="cls-3" d="M285.05,221.05a324.92,324.92,0,0,1-22.92-26.59l-1.78-2.26q-2.55,3.86-5.12,7.71c8,10.07,16,19.76,24.49,28.26Q282.4,224.6,285.05,221.05Z"/><path class="cls-4" d="M262,251.92a364.39,364.39,0,0,1-23.91-28.37c-.52.59-1,1.17-1.57,1.74-1.52,1.66-3,3.25-4.47,4.81,6.75,8.68,14.75,18.63,23.58,27.89.22.22.43.43.64.66,1.67-1.87,3.34-3.78,5-5.81C261.5,252.53,261.76,252.23,262,251.92Z"/><path class="cls-5" d="M426.78,194.26c-4.67,31-29.27,60.35-76.11,60.33,56.57-28.91,47.6-90.65,26.74-116.37,18.28-2.05,33.27,4.22,44.28,16.45C427,168.22,428.53,182.58,426.78,194.26Z"/><path class="cls-6" d="M426.78,194.26C421.21,236.34,384.61,309.15,320,294.35c-25.06-5.76-44.82-20.7-61.76-38.49a364.32,364.32,0,0,1-23.92-28.38c-28.9-37.28-51.85-73-87.79-59V129c34.66-6.27,54.93-2.89,87.15,35.6,8.55,10.23,16.63,20.88,24.72,31.11,8,10.07,16,19.76,24.49,28.26,16.59,16.58,35.18,28.63,59.38,30.36,2.86.21,5.66.3,8.36.3C397.51,254.61,422.11,225.28,426.78,194.26Z"/><rect class="cls-7" x="121.1" y="103.49" width="25.47" height="25.47"/><rect class="cls-8" x="79.37" y="118.77" width="15.39" height="15.39"/><rect class="cls-9" x="108.67" y="143.17" width="16.81" height="16.81"/><rect class="cls-10" x="78.66" y="151.58" width="16.81" height="16.81"/><rect class="cls-11" x="114.71" y="176.84" width="30.42" height="30.42"/><rect class="cls-12" x="150.16" y="216.91" width="21.14" height="21.14"/><rect class="cls-13" x="99.8" y="207.26" width="14.9" height="14.9"/><rect class="cls-14" x="121.1" y="247.37" width="21.14" height="21.14"/><rect class="cls-15" x="82.02" y="235.13" width="19.8" height="19.8"/><rect class="cls-16" x="72.53" y="190.32" width="12.91" height="12.91"/><path class="cls-17" d="M407.3,242.41c-20.19,23-58.8,41.76-99,23.94-51.67-22.89-80-63.11-80-63.11a155.27,155.27,0,0,0,7.2,20.5c.46.6.9,1.18,1.37,1.78a365.36,365.36,0,0,0,23.7,28.13c19.76,20.75,38.88,32.7,60.17,37.58a71.45,71.45,0,0,0,16,1.87C368.37,293.1,392.45,269.72,407.3,242.41Z"/><path class="cls-18" d="M363.1,247a93.12,93.12,0,0,1-12.43,7.6c46.84,0,71.44-29.31,76.11-60.33C426.78,194.26,409.91,241.3,363.1,247Z"/><path class="cls-19" d="M377.41,138.22a57.06,57.06,0,0,1,3.61,5c25.05-1.68,40.67,11.46,40.67,11.46C410.68,142.44,395.69,136.17,377.41,138.22Z"/><path class="cls-20" d="M347.93,130.43c30-10.8,49.26-2.49,60.55,7.23-9.57-12.51-25.89-25.23-52.71-25.23-1,0-2,0-3,0-36.21,1.28-60.09,37.35-85.37,75.53q-2.48,3.75-5,7.5c2.14,2.69,4.36,5.41,6.61,8.13C292.55,173,322.72,139.51,347.93,130.43Z"/><path class="cls-2" d="M102.2,337.3v58.79H83.76V337.3Z"/><path class="cls-2" d="M181.16,337.3v58.79H162.81V366.78l-9.05,29.31H138l-9-29.31v29.31H110.5V337.3h22.58l13,35.29,12.62-35.29Z"/><path class="cls-2" d="M235,367.57a18.4,18.4,0,0,1-7.6,7.18,25.73,25.73,0,0,1-12.16,2.66H207.9v18.68H189.47V337.3h25.74q10.78,0,16.56,5.48t5.77,14.7A20.11,20.11,0,0,1,235,367.57Zm-16.11-10.09q0-5.4-5.73-5.4H207.9v10.8h5.23Q218.86,362.88,218.86,357.48Z"/><path class="cls-2" d="M281.05,387.21H261.46l-2.91,8.88H239.2l21.51-58.79H282l21.42,58.79H284Zm-4.48-13.87L271.26,357l-5.32,16.36Z"/><path class="cls-2" d="M309.41,351.08A25.54,25.54,0,0,1,319.5,340.5,30.39,30.39,0,0,1,335,336.72a31.36,31.36,0,0,1,13.65,2.86,25.2,25.2,0,0,1,9.8,8.1,29.36,29.36,0,0,1,5,12.21H344a10.57,10.57,0,0,0-3.78-4.53,10,10,0,0,0-5.61-1.62,8.75,8.75,0,0,0-7.34,3.49c-1.81,2.32-2.7,5.45-2.7,9.38s.89,7.06,2.7,9.39a8.77,8.77,0,0,0,7.34,3.48,10,10,0,0,0,5.61-1.62,10.54,10.54,0,0,0,3.78-4.52h19.43a29.26,29.26,0,0,1-5,12.2,25.2,25.2,0,0,1-9.8,8.1A31.36,31.36,0,0,1,335,396.51a30.39,30.39,0,0,1-15.45-3.78,25.51,25.51,0,0,1-10.09-10.59,35.93,35.93,0,0,1,0-31.06Z"/><path class="cls-2" d="M416.24,337.3v14.61H400.63v44.18H382.19V351.91H366.75V337.3Z"/></g></g></svg>